<svg xmlns="http://www.w3.org/2000/svg" version="1.1" xmlns:xlink="http://www.w3.org/1999/xlink" xmlns:svgjs="http://svgjs.dev/svgjs" width="2000" height="1500" viewBox="0 0 2000 1500"><rect width="2000" height="1500" fill="#ffffff"></rect><g transform="matrix(0.75,0,0,0.75,249.090909090909,509.5802532568565)"><svg viewBox="0 0 396 127" data-background-color="#ffffff" preserveAspectRatio="xMidYMid meet" height="641" width="2000" xmlns="http://www.w3.org/2000/svg" xmlns:xlink="http://www.w3.org/1999/xlink"><g id="tight-bounds" transform="matrix(1,0,0,1,0.24000000000003752,0.011820772499675058)"><svg viewBox="0 0 395.5199999999999 126.97635845500066" height="126.97635845500066" width="395.5199999999999"><g><svg viewBox="0 0 554.0698373200013 177.8766440954905" height="126.97635845500066" width="395.5199999999999"><g transform="matrix(1,0,0,1,158.54983732000133,24.583530406829738)"><svg viewBox="0 0 395.52 128.70958328183102" height="128.70958328183102" width="395.52"><g id="textblocktransform"><svg viewBox="0 0 395.52 128.70958328183102" height="128.70958328183102" width="395.52" id="textblock"><g><svg viewBox="0 0 395.52 83.6980259222333" height="83.6980259222333" width="395.52"><g transform="matrix(1,0,0,1,0,0)"><svg width="395.52" viewBox="2.25 -36.5 200.59 42.45" height="83.6980259222333" data-palette-color="#000000"><path d="M23.75 5.95L4.55 5.95Q3.35 5.95 2.8 5.4 2.25 4.85 2.25 3.65L2.25 3.65 2.25-28.75Q2.25-29.4 2.43-29.85 2.6-30.3 2.95-30.6L2.95-30.6 9.4-36.05Q9.65-36.25 10.08-36.38 10.5-36.5 11-36.5L11-36.5 26.95-36.5Q32.15-36.5 34.6-34.48 37.05-32.45 37.05-28.35L37.05-28.35 37.05-25.95Q37.05-24.2 36.58-22.95 36.1-21.7 35.15-20.95L35.15-20.95 35-20.85Q37.7-20.25 39.05-18.28 40.4-16.3 40.4-12.8L40.4-12.8 40.4-8.2Q40.4-5.95 39.75-4.33 39.1-2.7 37.8-1.6L37.8-1.6 31.35 3.85Q30.1 4.9 28.2 5.43 26.3 5.95 23.75 5.95L23.75 5.95ZM11 0L30.2 0Q35.15 0 37.52-2 39.9-4 39.9-8.2L39.9-8.2 39.9-12.8Q39.9-16.45 38.35-18.35 36.8-20.25 33.6-20.55L33.6-20.55Q35.1-21.2 35.83-22.53 36.55-23.85 36.55-25.95L36.55-25.95 36.55-28.35Q36.55-32.25 34.2-34.13 31.85-36 26.95-36L26.95-36 11-36Q10.05-36 9.63-35.58 9.2-35.15 9.2-34.2L9.2-34.2 9.2-1.8Q9.2-0.85 9.63-0.43 10.05 0 11 0L11 0ZM28.2-4.5L28.2-4.5 14.75-4.5 14.75-31.5 24.9-31.5Q26.95-31.5 28.25-31.08 29.55-30.65 30.25-29.93 30.95-29.2 31.2-28.25 31.45-27.3 31.45-26.2L31.45-26.2 31.45-23Q31.45-21.5 30.93-20.25 30.4-19 28.25-18.45L28.25-18.45Q30.3-18.45 31.6-18.03 32.9-17.6 33.6-16.82 34.3-16.05 34.52-15 34.75-13.95 34.75-12.7L34.75-12.7 34.75-9.5Q34.75-8.4 34.5-7.48 34.25-6.55 33.58-5.9 32.9-5.25 31.6-4.88 30.3-4.5 28.2-4.5ZM24.9-31L24.9-31 15.25-31 15.25-18.45 24.9-18.45Q26.95-18.45 28.15-18.82 29.35-19.2 29.98-19.83 30.6-20.45 30.78-21.28 30.95-22.1 30.95-23L30.95-23 30.95-26.2Q30.95-28.2 29.8-29.6 28.65-31 24.9-31ZM20.45-22.1L20.45-27.5 24.7-27.5Q25.65-27.5 26.13-27 26.6-26.5 26.6-25.5L26.6-25.5 26.6-24.1Q26.6-23.1 26.13-22.6 25.65-22.1 24.7-22.1L24.7-22.1 20.45-22.1ZM28.25-17.95L28.25-17.95 15.25-17.95 15.25-5 28.2-5Q31.95-5 33.1-6.23 34.25-7.45 34.25-9.5L34.25-9.5 34.25-12.7Q34.25-14.95 33.13-16.45 32-17.95 28.25-17.95ZM20.45-8.5L20.45-14.4 26.95-14.4Q27.9-14.4 28.38-13.93 28.85-13.45 28.85-12.45L28.85-12.45 28.85-10.5Q28.85-9.5 28.38-9 27.9-8.5 26.95-8.5L26.95-8.5 20.45-8.5ZM67.25-31L67.25-31 56.35-31 56.35-16.55 67.25-16.55Q70.35-16.55 71.4-18.05 72.45-19.55 72.45-22.3L72.45-22.3 72.45-25.8Q72.45-28.1 71.17-29.55 69.9-31 67.25-31ZM61.75-20.6L61.75-27 65.5-27Q66.8-27 67.25-26.33 67.7-25.65 67.7-24.65L67.7-24.65 67.7-22.95Q67.7-21.95 67.25-21.28 66.8-20.6 65.5-20.6L65.5-20.6 61.75-20.6ZM56.35-16.1L56.35-4.5 55.85-4.5 55.85-31.5 67.25-31.5Q70.15-31.5 71.55-29.88 72.95-28.25 72.95-25.8L72.95-25.8 72.95-22.35Q72.95-20.05 72.35-18.57 71.75-17.1 69.95-16.55L69.95-16.55 70.5-16.55Q73.55-16.55 75.05-15.18 76.55-13.8 76.55-11.2L76.55-11.2 76.55-4.5 76.05-4.5 76.05-11.2Q76.05-13.65 74.7-14.88 73.35-16.1 70.5-16.1L70.5-16.1 56.35-16.1ZM52.25 0L59.95 0Q60.9 0 61.32-0.43 61.75-0.85 61.75-1.8L61.75-1.8 61.75-11.6 68.75-11.6Q69.8-11.6 70.22-11.08 70.65-10.55 70.65-9.45L70.65-9.45 70.65-1.8Q70.65-0.85 71.07-0.43 71.5 0 72.45 0L72.45 0 80.2 0Q81.15 0 81.57-0.43 82-0.85 82-1.8L82-1.8 82-12.4Q82-15.55 80.32-17.45 78.65-19.35 75.95-19.65L75.95-19.65Q77.5-20.3 78.12-21.78 78.75-23.25 78.75-25.35L78.75-25.35 78.75-27.65Q78.75-31.35 76.62-33.68 74.5-36 68.9-36L68.9-36 52.25-36Q51.3-36 50.87-35.58 50.45-35.15 50.45-34.2L50.45-34.2 50.45-1.8Q50.45-0.85 50.87-0.43 51.3 0 52.25 0L52.25 0ZM61.55 0.05L61.55 0.05 55.05 5.45Q54.85 5.65 54.42 5.8 54 5.95 53.5 5.95L53.5 5.95 45.8 5.95Q44.6 5.95 44.05 5.4 43.5 4.85 43.5 3.65L43.5 3.65 43.5-28.75Q43.5-29.4 43.67-29.85 43.85-30.3 44.2-30.6L44.2-30.6 50.65-36.05Q50.9-36.25 51.32-36.38 51.75-36.5 52.25-36.5L52.25-36.5 68.9-36.5Q74.85-36.5 77.05-34.02 79.25-31.55 79.25-27.65L79.25-27.65 79.25-25.35Q79.25-23.5 78.8-22.13 78.35-20.75 77.35-19.9L77.35-19.9 77.3-19.9Q79.65-19.25 81.07-17.3 82.5-15.35 82.5-12.4L82.5-12.4 82.5-1.8Q82.5-1.15 82.32-0.7 82.15-0.25 81.8 0.05L81.8 0.05 75.3 5.45Q75.1 5.65 74.67 5.8 74.25 5.95 73.75 5.95L73.75 5.95 66 5.95Q64.8 5.95 64.25 5.4 63.7 4.85 63.7 3.65L63.7 3.65 63.7-4Q63.7-4.8 63.4-5.23 63.1-5.65 62.3-5.65L62.3-5.65 62.25-5.65 62.25-1.8Q62.25-1.15 62.07-0.7 61.9-0.25 61.55 0.05ZM102.9 5.95L102.9 5.95 94.8 5.95Q93.55 5.95 93.02 5.4 92.5 4.85 92.5 3.65L92.5 3.65 92.5-2.6 84.95-12.7Q83.75-14.3 83.35-15.5 82.95-16.7 82.95-19.15L82.95-19.15 82.95-28.75Q82.95-29.4 83.12-29.85 83.3-30.3 83.65-30.6L83.65-30.6 90.1-36.05Q90.35-36.25 90.77-36.38 91.2-36.5 91.7-36.5L91.7-36.5 99.4-36.5Q100.6-36.5 101.15-35.95 101.7-35.4 101.7-34.2L101.7-34.2 101.7-26Q101.7-25.55 101.75-25.1 101.8-24.65 102.05-24.15L102.05-24.15 102.65-23.3 102.65-28.75Q102.65-29.4 102.82-29.85 103-30.3 103.35-30.6L103.35-30.6 109.8-36.05Q110.05-36.25 110.47-36.38 110.9-36.5 111.4-36.5L111.4-36.5 118.85-36.5Q120.05-36.5 120.6-35.95 121.15-35.4 121.15-34.2L121.15-34.2 121.15-24.6Q121.15-22.15 120.75-20.95 120.35-19.75 119.15-18.15L119.15-18.15 111.65-8 111.65-1.8Q111.65-1.15 111.47-0.7 111.3-0.25 110.95 0.05L110.95 0.05 104.45 5.45Q104.25 5.65 103.82 5.8 103.4 5.95 102.9 5.95ZM101.25 0L109.35 0Q110.3 0 110.72-0.43 111.15-0.85 111.15-1.8L111.15-1.8 111.15-8.15 118.75-18.45Q119.85-20 120.25-21.15 120.65-22.3 120.65-24.6L120.65-24.6 120.65-34.2Q120.65-35.15 120.22-35.58 119.8-36 118.85-36L118.85-36 111.4-36Q110.45-36 110.02-35.58 109.6-35.15 109.6-34.2L109.6-34.2 109.6-26Q109.6-25.5 109.55-24.95 109.5-24.4 109.15-23.9L109.15-23.9 106.85-20.3Q106.6-19.85 106.32-19.65 106.05-19.45 105.65-19.45L105.65-19.45 105.15-19.45Q104.75-19.45 104.47-19.65 104.2-19.85 103.95-20.3L103.95-20.3 101.65-23.9Q101.3-24.4 101.25-24.95 101.2-25.5 101.2-26L101.2-26 101.2-34.2Q101.2-35.15 100.77-35.58 100.35-36 99.4-36L99.4-36 91.7-36Q90.75-36 90.32-35.58 89.9-35.15 89.9-34.2L89.9-34.2 89.9-24.6Q89.9-22.3 90.27-21.15 90.65-20 91.8-18.45L91.8-18.45 99.45-8.2 99.45-1.8Q99.45-0.85 99.87-0.43 100.3 0 101.25 0L101.25 0ZM105.9-13.05L105.9-13.05 105.55-13.05 105.55-4.5 105.05-4.5 105.05-13.05 104.55-13.05Q103.45-13.05 102.57-13.55 101.7-14.05 100.9-15.15L100.9-15.15 96.05-21.9Q95.5-22.65 95.4-23.65 95.3-24.65 95.3-25.75L95.3-25.75 95.3-31.5 95.8-31.5 95.8-25.75Q95.8-24.7 95.9-23.78 96-22.85 96.5-22.1L96.5-22.1 101.35-15.35Q102-14.35 102.85-13.95 103.7-13.55 104.55-13.55L104.55-13.55 105.9-13.55Q106.85-13.55 107.62-13.98 108.4-14.4 109.15-15.35L109.15-15.35 114.15-22.1Q114.65-22.75 114.75-23.73 114.85-24.7 114.85-25.75L114.85-25.75 114.85-31.5 115.35-31.5 115.35-25.75Q115.35-24.65 115.27-23.68 115.2-22.7 114.6-21.9L114.6-21.9 109.6-15.15Q108.8-14.05 107.92-13.55 107.05-13.05 105.9-13.05ZM135.14-15.15L135.14-15.15 135.14-13.6 154.64-13.6 154.64-15.15Q154.64-16.5 154.42-17.65 154.19-18.8 153.84-19.8L153.84-19.8 150.39-27.95Q149.84-29.25 149.24-30.13 148.64-31 147.24-31L147.24-31 142.34-31Q140.84-31 140.24-30.13 139.64-29.25 139.14-28L139.14-28 135.94-19.8Q135.59-18.8 135.37-17.65 135.14-16.5 135.14-15.15ZM140.79-17.9L143.14-25.5Q143.34-25.95 143.57-26.15 143.79-26.35 144.09-26.35L144.09-26.35 145.34-26.35Q145.64-26.35 145.87-26.15 146.09-25.95 146.29-25.5L146.29-25.5 148.64-17.9 140.79-17.9ZM155.14-4.5L154.64-4.5 154.64-13.1 135.14-13.1 135.14-4.5 134.64-4.5 134.64-15.15Q134.64-16.55 134.87-17.73 135.09-18.9 135.49-20L135.49-20 138.69-28.2Q139.24-29.6 139.94-30.55 140.64-31.5 142.34-31.5L142.34-31.5 147.24-31.5Q148.89-31.5 149.57-30.55 150.24-29.6 150.84-28.15L150.84-28.15 154.29-20Q154.69-18.9 154.92-17.73 155.14-16.55 155.14-15.15L155.14-15.15 155.14-4.5ZM140.29-1.8L140.29-1.8 140.29-8.8 149.14-8.8 149.14-1.8Q149.14-0.85 149.62-0.43 150.09 0 151.09 0L151.09 0 158.64 0Q159.59 0 160.02-0.43 160.44-0.85 160.44-1.8L160.44-1.8 160.44-15Q160.44-16.5 159.97-18.45 159.49-20.4 158.49-23L158.49-23 154.14-34.35Q153.84-35.2 153.22-35.6 152.59-36 151.64-36L151.64-36 138.19-36Q137.19-36 136.57-35.6 135.94-35.2 135.64-34.35L135.64-34.35 131.29-23Q130.29-20.4 129.82-18.45 129.34-16.5 129.34-15L129.34-15 129.34-1.8Q129.34-0.85 129.77-0.43 130.19 0 131.14 0L131.14 0 138.49 0Q139.44 0 139.87-0.43 140.29-0.85 140.29-1.8ZM140.09 0.05L133.59 5.45Q133.39 5.65 132.97 5.8 132.54 5.95 132.04 5.95L132.04 5.95 124.69 5.95Q123.49 5.95 122.94 5.4 122.39 4.85 122.39 3.65L122.39 3.65 122.39-9.55Q122.39-11.1 122.87-13.08 123.34-15.05 124.39-17.75L124.39-17.75 128.69-29.05Q128.84-29.5 129.07-29.83 129.29-30.15 129.54-30.4L129.54-30.4 129.59-30.45 135.99-35.8Q136.39-36.15 136.94-36.33 137.49-36.5 138.19-36.5L138.19-36.5 151.64-36.5Q152.79-36.5 153.52-36.02 154.24-35.55 154.59-34.55L154.59-34.55 158.94-23.2Q159.99-20.5 160.47-18.53 160.94-16.55 160.94-15L160.94-15 160.94-1.8Q160.94-1.15 160.77-0.7 160.59-0.25 160.24 0.05L160.24 0.05 153.74 5.45Q153.54 5.65 153.12 5.8 152.69 5.95 152.19 5.95L152.19 5.95 144.64 5.95Q143.39 5.95 142.79 5.38 142.19 4.8 142.19 3.65L142.19 3.65 142.19-2.85 140.79-2.85 140.79-1.8Q140.79-1.15 140.62-0.7 140.44-0.25 140.09 0.05L140.09 0.05ZM178.19-31.1L178.19-31.1 196.59-10.4 196.59-31.5 197.09-31.5 197.09-4.5 196.59-4.5 196.59-9.65 177.69-30.85Q177.64-30.9 177.57-30.95 177.49-31 177.44-31L177.44-31Q177.39-31 177.37-30.95 177.34-30.9 177.34-30.85L177.34-30.85 177.34-4.5 176.84-4.5 176.84-30.95Q176.84-31.25 177.04-31.4 177.24-31.55 177.44-31.55L177.44-31.55Q177.64-31.55 177.79-31.45 177.94-31.35 178.19-31.1ZM173.39 0L180.89 0Q181.84 0 182.27-0.43 182.69-0.85 182.69-1.8L182.69-1.8 182.69-18.3 191.24-7.95 191.24-1.8Q191.24-0.85 191.67-0.43 192.09 0 193.04 0L193.04 0 200.54 0Q201.49 0 201.92-0.43 202.34-0.85 202.34-1.8L202.34-1.8 202.34-34.2Q202.34-35.15 201.92-35.58 201.49-36 200.54-36L200.54-36 193.04-36Q192.09-36 191.67-35.58 191.24-35.15 191.24-34.2L191.24-34.2 191.24-23.55 181.54-34.65Q180.89-35.4 180.22-35.7 179.54-36 178.59-36L178.59-36 173.39-36Q172.44-36 172.02-35.58 171.59-35.15 171.59-34.2L171.59-34.2 171.59-1.8Q171.59-0.85 172.02-0.43 172.44 0 173.39 0L173.39 0ZM182.49 0.05L182.49 0.05 175.99 5.45Q175.79 5.65 175.37 5.8 174.94 5.95 174.44 5.95L174.44 5.95 166.94 5.95Q165.74 5.95 165.19 5.4 164.64 4.85 164.64 3.65L164.64 3.65 164.64-28.75Q164.64-29.4 164.82-29.85 164.99-30.3 165.34-30.6L165.34-30.6 171.79-36.05Q172.04-36.25 172.47-36.38 172.89-36.5 173.39-36.5L173.39-36.5 178.59-36.5Q179.69-36.5 180.44-36.15 181.19-35.8 181.94-35L181.94-35 185.39-31 191.44-36.05Q191.69-36.25 192.12-36.38 192.54-36.5 193.04-36.5L193.04-36.5 200.54-36.5Q201.74-36.5 202.29-35.95 202.84-35.4 202.84-34.2L202.84-34.2 202.84-1.8Q202.84-1.15 202.67-0.7 202.49-0.25 202.14 0.05L202.14 0.05 195.64 5.45Q195.44 5.65 195.02 5.8 194.59 5.95 194.09 5.95L194.09 5.95 186.59 5.95Q185.39 5.95 184.84 5.4 184.29 4.85 184.29 3.65L184.29 3.65 184.29-2.3 183.19-3.65 183.19-1.8Q183.19-1.15 183.02-0.7 182.84-0.25 182.49 0.05Z" opacity="1" transform="matrix(1,0,0,1,0,0)" fill="#000000" class="wordmark-text-0" data-fill-palette-color="primary" id="text-0"></path></svg></g></svg></g><g transform="matrix(1,0,0,1,0,103.45712108985045)"><svg viewBox="0 0 232.20979200000002 25.25246219198056" height="25.25246219198056" width="232.20979200000002"><g transform="matrix(1,0,0,1,0,0)"><svg width="232.20979200000002" viewBox="2.29 -32.57 401.82 43.7" height="25.25246219198056" data-palette-color="#61777f"><path d="M25.54-6.98L24.66-6.98 24.66-17.92Q24.66-20.8 24.63-22.53 24.61-24.27 24.54-25.12 24.46-25.98 24.41-26.12L24.41-26.12 21.09-26.81 21.24-28.66 30.52-28.66 30.66-26.81 27.64-26.12Q27.64-25.98 27.56-25.12 27.49-24.27 27.44-22.51 27.39-20.75 27.39-17.92L27.39-17.92 27.39-6.3Q27.39-4.74 27.39-3.13 27.39-1.51 27.44 0.2L27.44 0.2 25.24 0.2 7.28-23.97 8.35-23.97 8.35-10.89Q8.35-7.96 8.4-6.2 8.45-4.44 8.52-3.59 8.59-2.73 8.64-2.54L8.64-2.54 11.96-1.86 11.82 0 2.44 0 2.29-1.86 5.27-2.54Q5.37-2.73 5.42-3.56 5.47-4.39 5.52-6.18 5.57-7.96 5.57-10.89L5.57-10.89 5.57-19.24Q5.57-21.44 5.52-22.85 5.47-24.27 5.42-25.05 5.37-25.83 5.27-26.12L5.27-26.12 2.29-26.81 2.44-28.66 9.13-28.66 25.54-6.98ZM44.68 0.39L44.68 0.39Q41.84 0.39 39.55-0.88 37.25-2.15 35.94-4.52 34.62-6.88 34.62-10.11L34.62-10.11Q34.62-13.57 36.03-16.11 37.45-18.65 39.74-20.04 42.04-21.44 44.68-21.39L44.68-21.39Q48.48-21.34 50.63-18.87 52.78-16.41 52.78-11.82L52.78-11.82 52.78-10.94 37.79-10.94 37.79-13.09 49.56-13.09 49.02-12.45 49.02-13.48Q49.02-16.26 47.78-17.8 46.53-19.34 44.28-19.34L44.28-19.34Q42.92-19.34 41.65-18.53 40.38-17.72 39.6-16.09 38.82-14.45 38.82-11.96L38.82-11.96 38.82-11.38Q38.82-7.37 40.79-5.13 42.77-2.88 45.9-2.88L45.9-2.88Q47.65-2.88 49-3.54 50.34-4.2 51.61-5.76L51.61-5.76 52.83-4.64Q51.46-2.1 49.36-0.85 47.26 0.39 44.68 0.39ZM66.65 0.2L65.18 0.2 56.54-18.51 54.24-19.24 54.34-21 63.86-21 63.96-19.24 60.93-18.51 67.62-3.66 66.35-3.61 72.5-18.51 69.48-19.24 69.58-21 77.68-21 77.78-19.24 75.48-18.51 66.65 0.2ZM89.15 0.39L89.15 0.39Q86.32 0.39 84.03-0.88 81.73-2.15 80.41-4.52 79.09-6.88 79.09-10.11L79.09-10.11Q79.09-13.57 80.51-16.11 81.93-18.65 84.22-20.04 86.52-21.44 89.15-21.39L89.15-21.39Q92.96-21.34 95.11-18.87 97.26-16.41 97.26-11.82L97.26-11.82 97.26-10.94 82.27-10.94 82.27-13.09 94.04-13.09 93.5-12.45 93.5-13.48Q93.5-16.26 92.25-17.8 91.01-19.34 88.76-19.34L88.76-19.34Q87.39-19.34 86.13-18.53 84.86-17.72 84.07-16.09 83.29-14.45 83.29-11.96L83.29-11.96 83.29-11.38Q83.29-7.37 85.27-5.13 87.25-2.88 90.37-2.88L90.37-2.88Q92.13-2.88 93.47-3.54 94.82-4.2 96.09-5.76L96.09-5.76 97.31-4.64Q95.94-2.1 93.84-0.85 91.74 0.39 89.15 0.39ZM111.9 0L100.62 0 100.48-1.76 103.51-2.49Q103.55-2.73 103.6-3.34 103.65-3.96 103.68-5.05 103.7-6.15 103.7-7.71L103.7-7.71 103.75-11.52Q103.75-13.13 103.63-14.72 103.51-16.31 103.36-17.19L103.36-17.19 100.23-17.87 100.23-19.48 106.78-21.29 107.46-20.61 107.27-16.5 107.41-16.46Q108.88-19.29 110.37-20.29 111.86-21.29 113.22-21.29L113.22-21.29Q114.35-21.29 115.1-20.7 115.86-20.12 115.86-19.04L115.86-19.04Q115.86-17.92 115.05-17.29 114.25-16.65 113.03-16.65L113.03-16.65Q112.15-16.65 111.34-17.04 110.54-17.43 109.8-18.12L109.8-18.12 110.68-17.82Q109.8-17.24 108.97-16.16 108.14-15.09 107.41-13.57L107.41-13.57 107.46-9.03Q107.51-7.81 107.56-6.52 107.61-5.22 107.66-4.13 107.7-3.03 107.75-2.49L107.75-2.49 112-1.86 111.9 0ZM137.14 0.44L137.14 0.44Q134.99 0.44 132.75-0.1 130.5-0.63 129.04-1.46L129.04-1.46 128.79-7.76 130.89-7.96 132.26-3.61Q133.43-2.83 134.87-2.42 136.31-2 137.88-2L137.88-2Q140.27-2 141.73-3.17 143.2-4.35 143.2-6.35L143.2-6.35Q143.2-8.06 142.17-9.2 141.15-10.35 139.51-11.21 137.88-12.06 136.04-12.87 134.21-13.67 132.6-14.72 130.99-15.77 129.94-17.31 128.89-18.85 128.89-21.14L128.89-21.14Q128.89-23.49 130.23-25.32 131.58-27.15 133.92-28.15 136.26-29.15 139.29-29.15L139.29-29.15Q140.56-29.15 141.76-29.03 142.95-28.91 143.98-28.64 145-28.37 145.83-28.03L145.83-28.03 146.23-21.92 144.13-21.73 142.76-25.83Q141.2-26.81 138.75-26.81L138.75-26.81Q136.26-26.81 134.78-25.59 133.29-24.37 133.29-22.41L133.29-22.41Q133.29-20.65 134.34-19.46 135.39-18.26 137.02-17.38 138.66-16.5 140.49-15.7 142.32-14.89 143.95-13.87 145.59-12.84 146.64-11.35 147.69-9.86 147.69-7.67L147.69-7.67Q147.69-5.32 146.32-3.49 144.96-1.66 142.59-0.61 140.22 0.44 137.14 0.44ZM165.51-4.25L166.39-3.03Q165.46-1.42 163.85-0.51 162.24 0.39 160.48 0.39L160.48 0.39Q157.55 0.39 155.62-1.42 153.69-3.22 153.69-6.84L153.69-6.84 153.84-18.51 150.42-18.51 150.42-19.53 156.72-25.24 157.65-25.24 157.55-19.63 157.5-7.62Q157.5-5.08 158.6-3.86 159.7-2.64 161.7-2.64L161.7-2.64Q162.82-2.64 163.78-3.1 164.73-3.56 165.51-4.25L165.51-4.25ZM164.92-18.51L155.79-18.51 155.79-20.95 164.92-20.95 164.92-18.51ZM178.3 0.39L178.3 0.39Q175.13 0.39 172.76-0.98 170.39-2.34 169.07-4.81 167.75-7.28 167.75-10.45L167.75-10.45Q167.75-13.77 169.19-16.21 170.63-18.65 173.1-20.02 175.57-21.39 178.5-21.39L178.5-21.39Q181.52-21.39 183.77-20.04 186.02-18.7 187.28-16.28 188.55-13.87 188.55-10.64L188.55-10.64Q188.55-7.57 187.19-5.05 185.82-2.54 183.5-1.07 181.18 0.39 178.3 0.39ZM178.79-1.9L178.79-1.9Q180.45-1.9 181.67-2.91 182.89-3.91 183.57-5.69 184.26-7.47 184.26-9.77L184.26-9.77Q184.26-13.96 182.52-16.58 180.79-19.19 177.96-19.19L177.96-19.19Q175.32-19.19 173.73-17.02 172.15-14.84 172.15-11.18L172.15-11.18Q172.15-8.45 173-6.35 173.86-4.25 175.37-3.08 176.88-1.9 178.79-1.9ZM203 10.74L191.97 10.74 191.87 8.98 194.9 8.25Q194.9 8.01 194.92 7.42 194.95 6.84 194.97 5.83 195 4.83 195.05 3.47 195.09 2.1 195.09 0.29L195.09 0.29 195.19-11.77Q195.19-13.23 195.07-14.77 194.95-16.31 194.8-17.19L194.8-17.19 191.68-17.87 191.68-19.48 198.22-21.29 199.05-20.51 198.81-17.82 198.95-17.82Q200.32-19.58 201.96-20.48 203.59-21.39 205.5-21.39L205.5-21.39Q208.18-21.39 210.26-20.04 212.33-18.7 213.53-16.36 214.72-14.01 214.72-11.04L214.72-11.04Q214.72-7.76 213.26-5.2 211.79-2.64 209.28-1.15 206.76 0.34 203.59 0.34L203.59 0.34Q202.42 0.34 201.17 0.12 199.93-0.1 198.9-0.49L198.9-0.49 198.9 3.17Q198.9 5.03 198.98 6.32 199.05 7.62 199.1 8.25L199.1 8.25 203.1 8.89 203 10.74ZM203.74-2.05L203.74-2.05Q205.74-2.05 207.2-3 208.67-3.96 209.52-5.76 210.38-7.57 210.43-10.11L210.43-10.11Q210.48-12.45 209.65-14.26 208.82-16.06 207.4-17.11 205.98-18.16 204.13-18.16L204.13-18.16Q202.57-18.16 201.27-17.46 199.98-16.75 198.9-15.38L198.9-15.38 198.9-3.56Q199.83-2.83 201.12-2.44 202.42-2.05 203.74-2.05ZM250.95-7.23L248.95 0.24Q248.26 0.15 247.41 0.1 246.55 0.05 245.72 0.02 244.89 0 244.21 0L244.21 0 228.59 0 228.49-1.86 231.47-2.54Q231.52-2.78 231.56-3.64 231.61-4.49 231.64-6.05 231.66-7.62 231.66-9.72L231.66-9.72 231.66-18.9Q231.66-21.09 231.66-22.61 231.66-24.12 231.61-25 231.56-25.88 231.47-26.07L231.47-26.07 228.49-26.81 228.59-28.66 240.06-28.66 240.21-26.71 236.15-26.07Q236.06-25.93 236.01-25.12 235.96-24.32 235.91-22.78 235.86-21.24 235.86-18.9L235.86-18.9 235.86-9.72Q235.86-7.18 235.91-5.3 235.96-3.42 236.01-2.88L236.01-2.88Q236.69-2.78 237.4-2.76 238.11-2.73 239.08-2.73L239.08-2.73 242.75-2.73Q243.87-2.73 244.65-2.78 245.43-2.83 246.21-2.93L246.21-2.93 248.75-7.71 250.95-7.23ZM263.2 0.39L263.2 0.39Q260.37 0.39 258.08-0.88 255.78-2.15 254.46-4.52 253.14-6.88 253.14-10.11L253.14-10.11Q253.14-13.57 254.56-16.11 255.98-18.65 258.27-20.04 260.57-21.44 263.2-21.39L263.2-21.39Q267.01-21.34 269.16-18.87 271.31-16.41 271.31-11.82L271.31-11.82 271.31-10.94 256.32-10.94 256.32-13.09 268.09-13.09 267.55-12.45 267.55-13.48Q267.55-16.26 266.3-17.8 265.06-19.34 262.81-19.34L262.81-19.34Q261.44-19.34 260.18-18.53 258.91-17.72 258.12-16.09 257.34-14.45 257.34-11.96L257.34-11.96 257.34-11.38Q257.34-7.37 259.32-5.13 261.3-2.88 264.42-2.88L264.42-2.88Q266.18-2.88 267.52-3.54 268.87-4.2 270.14-5.76L270.14-5.76 271.36-4.64Q269.99-2.1 267.89-0.85 265.79 0.39 263.2 0.39ZM282.63 0.39L282.63 0.39Q280.68 0.39 279.17-0.39 277.65-1.17 276.8-2.39 275.94-3.61 275.94-4.93L275.94-4.93Q275.94-6.54 276.99-7.62 278.04-8.69 280.53-9.52L280.53-9.52 287.96-12.01 287.96-14.5Q287.96-15.72 287.22-16.72 286.49-17.72 285.27-18.31 284.05-18.9 282.54-18.9L282.54-18.9Q281.32-18.9 280.88-18.38 280.44-17.87 280.34-16.36L280.34-16.36 280.24-14.31Q278.48-13.92 277.26-14.43 276.04-14.94 276.04-16.11L276.04-16.11Q276.04-16.94 276.77-17.77 277.51-18.6 278.68-19.36 279.85-20.12 281.19-20.65 282.54-21.19 283.85-21.39L283.85-21.39Q287.42-21.39 289.62-19.51 291.81-17.63 291.86-14.5L291.86-14.5 291.76-6.3Q291.76-5.42 291.84-4.52 291.91-3.61 292.06-3.17L292.06-3.17 295.18-2.59 295.18-1.07 292.79-0.2Q292.11 0.1 291.52 0.24 290.93 0.39 290.54 0.39L290.54 0.39Q289.03 0.39 288.59-1.32L288.59-1.32 288.05-3.22 288.79-3.22Q287.17-1.42 285.69-0.51 284.2 0.39 282.63 0.39ZM283.95-2.49L283.95-2.49Q285.07-2.49 286.08-3 287.08-3.52 287.96-4.59L287.96-4.59 287.96-9.72 282.49-8.25Q281.32-7.96 280.8-7.32 280.29-6.69 280.29-5.71L280.29-5.71Q280.29-4.49 281.39-3.49 282.49-2.49 283.95-2.49ZM309.1 0L297.82 0 297.67-1.76 300.7-2.49Q300.75-2.73 300.8-3.34 300.84-3.96 300.87-5.05 300.89-6.15 300.89-7.71L300.89-7.71 300.94-11.52Q300.94-13.13 300.82-14.72 300.7-16.31 300.55-17.19L300.55-17.19 297.43-17.87 297.43-19.48 303.97-21.29 304.65-20.61 304.46-16.5 304.6-16.46Q306.07-19.29 307.56-20.29 309.05-21.29 310.41-21.29L310.41-21.29Q311.54-21.29 312.29-20.7 313.05-20.12 313.05-19.04L313.05-19.04Q313.05-17.92 312.25-17.29 311.44-16.65 310.22-16.65L310.22-16.65Q309.34-16.65 308.53-17.04 307.73-17.43 307-18.12L307-18.12 307.88-17.82Q307-17.24 306.17-16.16 305.34-15.09 304.6-13.57L304.6-13.57 304.65-9.03Q304.7-7.81 304.75-6.52 304.8-5.22 304.85-4.13 304.9-3.03 304.95-2.49L304.95-2.49 309.19-1.86 309.1 0ZM325.5 0L315.49 0 315.39-1.76 318.42-2.49Q318.47-2.83 318.49-3.42 318.52-4 318.57-5.03 318.61-6.05 318.61-7.71L318.61-7.71 318.66-11.47Q318.66-13.09 318.54-14.7 318.42-16.31 318.27-17.19L318.27-17.19 315.15-17.87 315.15-19.48 321.69-21.29 322.52-20.51 322.28-17.92 322.42-17.87Q324.13-19.73 325.79-20.56 327.45-21.39 329.41-21.39L329.41-21.39Q331.21-21.39 332.8-20.48 334.39-19.58 335.39-17.7 336.39-15.82 336.39-12.99L336.39-12.99 336.39-7.57Q336.39-5.81 336.46-4.39 336.53-2.98 336.68-2.49L336.68-2.49 339.71-1.76 339.56 0 329.75 0 329.65-1.76 332.48-2.49Q332.53-2.88 332.58-3.47 332.63-4.05 332.65-4.98 332.68-5.91 332.68-7.23L332.68-7.23 332.68-12.5Q332.68-14.7 331.92-15.99 331.16-17.29 330.04-17.85 328.92-18.41 327.75-18.41L327.75-18.41Q326.13-18.41 324.77-17.63 323.4-16.85 322.37-15.38L322.37-15.38 322.37-8.06Q322.37-5.76 322.45-4.39 322.52-3.03 322.62-2.49L322.62-2.49 325.65-1.76 325.5 0ZM352.69 0L342.15 0 342.05-1.81 345.32-2.49Q345.37-2.69 345.39-3.17 345.42-3.66 345.47-4.74 345.52-5.81 345.52-7.71L345.52-7.71 345.52-10.94Q345.52-12.99 345.42-14.65 345.32-16.31 345.17-17.19L345.17-17.19 341.9-17.87 341.9-19.48 348.84-21.29 349.57-20.61Q349.42-19.09 349.35-17.63 349.28-16.16 349.28-14.21L349.28-14.21 349.28-8.06Q349.28-5.81 349.35-4.35 349.42-2.88 349.52-2.49L349.52-2.49 352.79-1.81 352.69 0ZM347.42-26.81L347.42-26.81Q346.15-26.81 345.27-27.64 344.39-28.47 344.39-29.69L344.39-29.69Q344.39-30.86 345.27-31.71 346.15-32.57 347.42-32.57L347.42-32.57Q348.69-32.57 349.52-31.71 350.35-30.86 350.35-29.69L350.35-29.69Q350.35-28.47 349.52-27.64 348.69-26.81 347.42-26.81ZM365.44 0L355.43 0 355.33-1.76 358.36-2.49Q358.4-2.83 358.43-3.42 358.45-4 358.5-5.03 358.55-6.05 358.55-7.71L358.55-7.71 358.6-11.47Q358.6-13.09 358.48-14.7 358.36-16.31 358.21-17.19L358.21-17.19 355.08-17.87 355.08-19.48 361.63-21.29 362.46-20.51 362.21-17.92 362.36-17.87Q364.07-19.73 365.73-20.56 367.39-21.39 369.34-21.39L369.34-21.39Q371.15-21.39 372.74-20.48 374.32-19.58 375.32-17.7 376.32-15.82 376.32-12.99L376.32-12.99 376.32-7.57Q376.32-5.81 376.4-4.39 376.47-2.98 376.62-2.49L376.62-2.49 379.65-1.76 379.5 0 369.68 0 369.59-1.76 372.42-2.49Q372.47-2.88 372.52-3.47 372.56-4.05 372.59-4.98 372.61-5.91 372.61-7.23L372.61-7.23 372.61-12.5Q372.61-14.7 371.86-15.99 371.1-17.29 369.98-17.85 368.85-18.41 367.68-18.41L367.68-18.41Q366.07-18.41 364.7-17.63 363.34-16.85 362.31-15.38L362.31-15.38 362.31-8.06Q362.31-5.76 362.38-4.39 362.46-3.03 362.56-2.49L362.56-2.49 365.58-1.76 365.44 0ZM392.14 11.13L392.14 11.13Q387.65 11.13 385.01 9.67 382.38 8.2 382.38 5.76L382.38 5.76Q382.38 4.1 383.7 2.69 385.01 1.27 387.94-0.2L387.94-0.2 389.8 0.2Q388.19 1.17 387.31 2.39 386.43 3.61 386.43 5.03L386.43 5.03Q386.43 6.98 387.99 8.06 389.55 9.13 392.34 9.13L392.34 9.13Q395.46 9.13 397.44 7.76 399.42 6.4 399.42 4.25L399.42 4.25Q399.42 2.59 398.25 1.78 397.07 0.98 394.29 0.78L394.29 0.78 389.07 0.34 388.33 0.15Q386.58 0.15 385.31-0.81 384.04-1.76 384.04-3.13L384.04-3.13Q384.04-4.44 385.31-5.71 386.58-6.98 388.82-7.96L388.82-7.96 389.46-6.98Q388.53-6.35 388.09-5.83 387.65-5.32 387.65-4.83L387.65-4.83Q387.65-4.15 388.26-3.69 388.87-3.22 389.99-3.08L389.99-3.08 396.29-2.44Q399.66-2.1 401.42-0.73 403.18 0.63 403.18 3.17L403.18 3.17Q403.18 5.42 401.71 7.23 400.25 9.03 397.76 10.08 395.27 11.13 392.14 11.13ZM392.53-6.05L392.53-6.05Q389.95-6.05 387.92-6.98 385.89-7.91 384.77-9.57 383.65-11.23 383.65-13.28L383.65-13.28Q383.65-15.63 384.82-17.43 385.99-19.24 387.99-20.29 389.99-21.34 392.48-21.34L392.48-21.34Q394.97-21.34 396.93-20.36 398.88-19.38 400.03-17.65 401.18-15.92 401.18-13.72L401.18-13.72Q401.18-11.57 400.03-9.84 398.88-8.11 396.9-7.08 394.93-6.05 392.53-6.05ZM392.78-8.01L392.78-8.01Q394.78-8.01 395.95-9.47 397.12-10.94 397.12-13.38L397.12-13.38Q397.12-16.16 395.83-17.8 394.54-19.43 392.44-19.43L392.44-19.43Q390.43-19.43 389.16-17.9 387.89-16.36 387.89-13.82L387.89-13.82Q387.89-11.28 389.24-9.64 390.58-8.01 392.78-8.01ZM404.11-20.95L404.11-17.82 398.29-18.21 396.39-20.17 404.11-20.95Z" opacity="1" transform="matrix(1,0,0,1,0,0)" fill="#61777f" class="slogan-text-1" data-fill-palette-color="secondary" id="text-1"></path></svg></g></svg></g></svg></g></svg></g><g><svg viewBox="0 0 138.79074215238418 177.8766440954905" height="177.8766440954905" width="138.79074215238418"><g><svg xmlns="http://www.w3.org/2000/svg" xmlns:xlink="http://www.w3.org/1999/xlink" version="1.1" x="0" y="0" viewBox="12.575 2 75.425 96.666" enable-background="new 0 0 100 100" xml:space="preserve" height="177.8766440954905" width="138.79074215238418" class="icon-icon-0" data-fill-palette-color="accent" id="icon-0"><polygon points="13.225,95.155 27.919,91.123 32.731,86.182 42.875,86.182 47.946,80.59 56.399,82.28 33.251,95.155 18.946,98.666   " fill="#61777f" data-fill-palette-color="accent"></polygon><polygon points="62.901,72.007 75.906,63.424 77.727,60.433 76.816,63.944 67.193,73.308 " fill="#61777f" data-fill-palette-color="accent"></polygon><path d="M69.794 75.345L59.737 72.57l15.085-10.577 5.896-7.629 1.04-16.126L79.33 22.807l0.694-10.057L69.621 2l3.121 9.883-0.867 7.282-10.577 2.081-7.456-1.214 10.75 6.069h9.884l3.468 3.641-1.214 15.952-7.976 6.474-37.8 15.895L15.869 85.401l-3.294 8.149 14.045-3.641 5.722-5.723 10.057-0.347 4.161-5.202 22.542 4.162L88 71.877 69.794 75.345zM24.972 85.748c-0.718 0-1.3-0.582-1.3-1.301 0-0.718 0.582-1.3 1.3-1.3s1.301 0.582 1.301 1.3C26.272 85.166 25.69 85.748 24.972 85.748z" fill="#61777f" data-fill-palette-color="accent"></path></svg></g></svg></g></svg></g><defs></defs></svg><rect width="395.5199999999999" height="126.97635845500066" fill="none" stroke="none" visibility="hidden"></rect></g></svg></g></svg>